<svg xmlns="http://www.w3.org/2000/svg" xmlns:xlink="http://www.w3.org/1999/xlink" width="1000" zoomAndPan="magnify" viewBox="0 0 750 374.999991" height="500" preserveAspectRatio="xMidYMid meet" version="1.0"><defs><g/><clipPath id="aed17422ca"><path d="M 409.578125 29 L 732 29 L 732 303 L 409.578125 303 Z M 409.578125 29 " clip-rule="nonzero"/></clipPath><clipPath id="217c76811a"><path d="M 409.578125 61 L 732 61 L 732 303 L 409.578125 303 Z M 409.578125 61 " clip-rule="nonzero"/></clipPath><clipPath id="546a4d2329"><path d="M 409.578125 116 L 415 116 L 415 145 L 409.578125 145 Z M 409.578125 116 " clip-rule="nonzero"/></clipPath><clipPath id="beb84fadb6"><path d="M 409.578125 123 L 415 123 L 415 133 L 409.578125 133 Z M 409.578125 123 " clip-rule="nonzero"/></clipPath><clipPath id="1fb214c3dc"><path d="M 409.578125 141 L 456 141 L 456 176 L 409.578125 176 Z M 409.578125 141 " clip-rule="nonzero"/></clipPath></defs><rect x="-75" width="900" fill="#ffffff" y="-37.499999" height="449.999989" fill-opacity="1"/><rect x="-75" width="900" fill="#ffffff" y="-37.499999" height="449.999989" fill-opacity="1"/><g fill="#0a3c23" fill-opacity="1"><g transform="translate(0.000009, 159.651967)"><g><path d="M 48.9375 -97.03125 C 56.882812 -97.03125 63.8125 -95.644531 69.71875 -92.875 C 75.632812 -90.101562 80.554688 -86.429688 84.484375 -81.859375 C 88.421875 -77.285156 91.378906 -72.109375 93.359375 -66.328125 C 95.347656 -60.554688 96.34375 -54.617188 96.34375 -48.515625 C 96.34375 -42.421875 95.347656 -36.484375 93.359375 -30.703125 C 91.378906 -24.929688 88.421875 -19.753906 84.484375 -15.171875 C 80.554688 -10.597656 75.632812 -6.925781 69.71875 -4.15625 C 63.8125 -1.382812 56.882812 0 48.9375 0 L 12.34375 0 L 12.34375 -97.03125 Z M 37.15625 -74.4375 L 37.15625 -22.59375 L 48.9375 -22.59375 C 54.113281 -22.59375 58.410156 -23.835938 61.828125 -26.328125 C 65.242188 -28.828125 67.804688 -32.039062 69.515625 -35.96875 C 71.222656 -39.894531 72.078125 -44.078125 72.078125 -48.515625 C 72.078125 -52.953125 71.222656 -57.132812 69.515625 -61.0625 C 67.804688 -64.988281 65.242188 -68.195312 61.828125 -70.6875 C 58.410156 -73.1875 54.113281 -74.4375 48.9375 -74.4375 Z M 37.15625 -74.4375 "/></g></g></g><g fill="#0a3c23" fill-opacity="1"><g transform="translate(103.964625, 159.651967)"><g><path d="M 74.03125 0 L 68.34375 -12.203125 L 30.078125 -12.203125 L 24.390625 0 L 0.140625 0 L 0.140625 -3.609375 L 43.8125 -98.28125 L 54.484375 -98.28125 L 98.28125 -3.609375 L 98.28125 0 Z M 60.296875 -33.40625 L 49.078125 -58.921875 L 38.125 -33.40625 Z M 60.296875 -33.40625 "/></g></g></g><g fill="#0a3c23" fill-opacity="1"><g transform="translate(202.661629, 159.651967)"><g><path d="M 41.171875 -21.765625 L 53.515625 -21.765625 L 53.515625 0 L 4.296875 0 L 4.296875 -21.765625 L 16.640625 -21.765625 L 16.640625 -75.40625 L 5.265625 -75.40625 L 5.265625 -97.03125 L 52.53125 -97.03125 L 52.53125 -75.40625 L 41.171875 -75.40625 Z M 41.171875 -21.765625 "/></g></g></g><g fill="#0a3c23" fill-opacity="1"><g transform="translate(0.000009, 296.958733)"><g><path d="M 48.9375 -97.03125 C 56.882812 -97.03125 63.8125 -95.644531 69.71875 -92.875 C 75.632812 -90.101562 80.554688 -86.429688 84.484375 -81.859375 C 88.421875 -77.285156 91.378906 -72.109375 93.359375 -66.328125 C 95.347656 -60.554688 96.34375 -54.617188 96.34375 -48.515625 C 96.34375 -42.421875 95.347656 -36.484375 93.359375 -30.703125 C 91.378906 -24.929688 88.421875 -19.753906 84.484375 -15.171875 C 80.554688 -10.597656 75.632812 -6.925781 69.71875 -4.15625 C 63.8125 -1.382812 56.882812 0 48.9375 0 L 12.34375 0 L 12.34375 -97.03125 Z M 37.15625 -74.4375 L 37.15625 -22.59375 L 48.9375 -22.59375 C 54.113281 -22.59375 58.410156 -23.835938 61.828125 -26.328125 C 65.242188 -28.828125 67.804688 -32.039062 69.515625 -35.96875 C 71.222656 -39.894531 72.078125 -44.078125 72.078125 -48.515625 C 72.078125 -52.953125 71.222656 -57.132812 69.515625 -61.0625 C 67.804688 -64.988281 65.242188 -68.195312 61.828125 -70.6875 C 58.410156 -73.1875 54.113281 -74.4375 48.9375 -74.4375 Z M 37.15625 -74.4375 "/></g></g></g><g fill="#0a3c23" fill-opacity="1"><g transform="translate(102.855584, 296.958733)"><g><path d="M 49.90625 -20.9375 C 52.3125 -20.9375 54.644531 -21.375 56.90625 -22.25 C 59.164062 -23.125 61.007812 -24.4375 62.4375 -26.1875 C 63.875 -27.945312 64.59375 -30.125 64.59375 -32.71875 L 64.59375 -97.03125 C 68.570312 -97.03125 72.546875 -97.03125 76.515625 -97.03125 C 80.492188 -97.03125 84.421875 -97.03125 88.296875 -97.03125 L 88.296875 -32.296875 C 88.296875 -25.179688 86.492188 -19.101562 82.890625 -14.0625 C 79.285156 -9.03125 74.550781 -5.195312 68.6875 -2.5625 C 62.820312 0.0703125 56.5625 1.390625 49.90625 1.390625 C 44.914062 1.390625 40.132812 0.628906 35.5625 -0.890625 C 30.988281 -2.421875 26.875 -4.617188 23.21875 -7.484375 C 19.570312 -10.347656 16.6875 -13.859375 14.5625 -18.015625 C 12.4375 -22.179688 11.375 -26.941406 11.375 -32.296875 L 11.375 -97.03125 C 15.25 -97.03125 19.195312 -97.03125 23.21875 -97.03125 C 27.238281 -97.03125 31.191406 -97.03125 35.078125 -97.03125 L 35.078125 -32.71875 C 35.078125 -30.125 35.816406 -27.945312 37.296875 -26.1875 C 38.773438 -24.4375 40.644531 -23.125 42.90625 -22.25 C 45.164062 -21.375 47.5 -20.9375 49.90625 -20.9375 Z M 49.90625 -20.9375 "/></g></g></g><g fill="#0a3c23" fill-opacity="1"><g transform="translate(202.938777, 296.958733)"><g><path d="M 105.90625 -48.375 C 105.90625 -39.96875 104.492188 -32.617188 101.671875 -26.328125 C 98.859375 -20.046875 95.09375 -14.800781 90.375 -10.59375 C 85.664062 -6.394531 80.351562 -3.234375 74.4375 -1.109375 C 68.519531 1.015625 62.421875 2.078125 56.140625 2.078125 C 49.859375 2.078125 43.757812 1.015625 37.84375 -1.109375 C 31.925781 -3.234375 26.609375 -6.394531 21.890625 -10.59375 C 17.179688 -14.800781 13.414062 -20.046875 10.59375 -26.328125 C 7.78125 -32.617188 6.375 -39.96875 6.375 -48.375 C 6.375 -56.789062 7.78125 -64.140625 10.59375 -70.421875 C 13.414062 -76.703125 17.179688 -81.945312 21.890625 -86.15625 C 26.609375 -90.363281 31.925781 -93.503906 37.84375 -95.578125 C 43.757812 -97.660156 49.859375 -98.703125 56.140625 -98.703125 C 62.421875 -98.703125 68.519531 -97.660156 74.4375 -95.578125 C 80.351562 -93.503906 85.664062 -90.363281 90.375 -86.15625 C 95.09375 -81.945312 98.859375 -76.703125 101.671875 -70.421875 C 104.492188 -64.140625 105.90625 -56.789062 105.90625 -48.375 Z M 31.890625 -48.375 C 31.890625 -42.550781 33.066406 -37.675781 35.421875 -33.75 C 37.773438 -29.820312 40.800781 -26.890625 44.5 -24.953125 C 48.195312 -23.015625 52.097656 -22.046875 56.203125 -22.046875 C 60.316406 -22.046875 64.222656 -23.015625 67.921875 -24.953125 C 71.617188 -26.890625 74.644531 -29.820312 77 -33.75 C 79.363281 -37.675781 80.546875 -42.550781 80.546875 -48.375 C 80.546875 -54.195312 79.363281 -59.050781 77 -62.9375 C 74.644531 -66.820312 71.617188 -69.734375 67.921875 -71.671875 C 64.222656 -73.609375 60.316406 -74.578125 56.203125 -74.578125 C 52.097656 -74.578125 48.195312 -73.609375 44.5 -71.671875 C 40.800781 -69.734375 37.773438 -66.820312 35.421875 -62.9375 C 33.066406 -59.050781 31.890625 -54.195312 31.890625 -48.375 Z M 31.890625 -48.375 "/></g></g></g><g fill="#0a3c23" fill-opacity="1"><g transform="translate(315.220463, 296.958733)"><g><path d="M 86.921875 0.140625 L 37.984375 -47.6875 L 37.984375 0 C 33.734375 0 29.457031 0 25.15625 0 C 20.863281 0 16.59375 0 12.34375 0 L 12.34375 -97.453125 L 21.34375 -97.453125 L 70.421875 -49.484375 L 70.421875 -97.03125 C 74.671875 -97.03125 78.894531 -97.03125 83.09375 -97.03125 C 87.300781 -97.03125 91.535156 -97.03125 95.796875 -97.03125 L 95.796875 0.140625 Z M 86.921875 0.140625 "/></g></g></g><g fill="#0a3c23" fill-opacity="1"><g transform="translate(423.343576, 296.958733)"><g><path d="M 6.375 -48.515625 C 6.375 -56.835938 7.804688 -64.09375 10.671875 -70.28125 C 13.535156 -76.476562 17.347656 -81.65625 22.109375 -85.8125 C 26.867188 -89.96875 32.179688 -93.082031 38.046875 -95.15625 C 43.921875 -97.238281 49.953125 -98.28125 56.140625 -98.28125 C 62.703125 -98.28125 69.101562 -97.078125 75.34375 -94.671875 C 81.582031 -92.273438 86.988281 -88.554688 91.5625 -83.515625 C 96.132812 -78.484375 99.207031 -71.945312 100.78125 -63.90625 L 76.375 -63.90625 C 74.34375 -68.0625 71.6875 -71.039062 68.40625 -72.84375 C 65.125 -74.644531 61.035156 -75.546875 56.140625 -75.546875 C 50.960938 -75.546875 46.570312 -74.320312 42.96875 -71.875 C 39.363281 -69.425781 36.632812 -66.164062 34.78125 -62.09375 C 32.9375 -58.03125 32.015625 -53.503906 32.015625 -48.515625 C 32.015625 -40.472656 34.207031 -34.023438 38.59375 -29.171875 C 42.988281 -24.328125 48.835938 -21.90625 56.140625 -21.90625 C 61.128906 -21.90625 65.285156 -22.734375 68.609375 -24.390625 C 71.941406 -26.054688 74.71875 -29.203125 76.9375 -33.828125 L 56.28125 -33.828125 L 56.28125 -55.3125 L 102.171875 -55.3125 C 102.441406 -50.507812 102.460938 -45.75 102.234375 -41.03125 C 102.003906 -36.320312 101.054688 -31.609375 99.390625 -26.890625 C 97.078125 -20.148438 93.65625 -14.722656 89.125 -10.609375 C 84.601562 -6.492188 79.476562 -3.507812 73.75 -1.65625 C 68.019531 0.1875 62.148438 1.109375 56.140625 1.109375 C 49.953125 1.109375 43.921875 0.0703125 38.046875 -2 C 32.179688 -4.082031 26.867188 -7.179688 22.109375 -11.296875 C 17.347656 -15.410156 13.535156 -20.5625 10.671875 -26.75 C 7.804688 -32.945312 6.375 -40.203125 6.375 -48.515625 Z M 6.375 -48.515625 "/></g></g></g><path fill="#202d31" d="M 446.261719 178.269531 L 448.359375 183.027344 L 459.027344 180.824219 L 469.839844 170.003906 L 442.875 170.003906 Z M 446.261719 178.269531 " fill-opacity="1" fill-rule="nonzero"/><path fill="#202d31" d="M 456.460938 173.457031 L 464.730469 169.660156 C 467.179688 168.832031 470.273438 169.28125 473.640625 171.226562 C 481.578125 175.8125 488.011719 186.964844 488.011719 196.136719 C 488.011719 200.945312 486.238281 204.253906 483.410156 205.652344 L 475.640625 209.257812 C 473.121094 210.332031 469.832031 209.960938 466.230469 207.878906 C 458.292969 203.296875 451.859375 192.144531 451.859375 182.972656 C 451.859375 178.160156 453.628906 174.855469 456.460938 173.457031 Z M 456.460938 173.457031 " fill-opacity="1" fill-rule="nonzero"/><path fill="#39464a" d="M 451.859375 182.972656 C 451.859375 192.144531 458.292969 203.296875 466.230469 207.882812 C 474.167969 212.46875 480.597656 208.75 480.597656 199.578125 C 480.597656 190.40625 474.167969 179.253906 466.230469 174.671875 C 458.292969 170.085938 451.859375 173.800781 451.859375 182.972656 Z M 451.859375 182.972656 " fill-opacity="1" fill-rule="nonzero"/><path fill="#bfbfbf" d="M 457.175781 186.917969 C 457.28125 192.675781 460.882812 198.972656 465.816406 201.949219 C 470.207031 204.601562 474.554688 202.003906 474.457031 196.90625 C 474.351562 191.144531 470.75 184.855469 465.816406 181.875 C 461.429688 179.226562 457.078125 181.824219 457.175781 186.917969 Z M 457.175781 186.917969 " fill-opacity="1" fill-rule="nonzero"/><path fill="#d8d8d8" d="M 462.246094 181.539062 C 459.988281 182.023438 458.359375 184.117188 458.417969 187.160156 C 458.519531 192.570312 461.902344 198.492188 466.542969 201.292969 C 468.324219 202.371094 470.101562 202.523438 471.535156 201.964844 C 469.984375 202.914062 467.875 202.921875 465.753906 201.640625 C 461.058594 198.808594 457.632812 192.8125 457.527344 187.335938 C 457.464844 183.886719 459.539062 181.640625 462.246094 181.539062 Z M 462.246094 181.539062 " fill-opacity="1" fill-rule="nonzero"/><path fill="#d8d8d8" d="M 460.910156 189.769531 C 460.96875 192.6875 462.792969 195.878906 465.292969 197.390625 C 467.515625 198.734375 469.722656 197.417969 469.671875 194.832031 C 469.617188 191.914062 467.792969 188.722656 465.292969 187.214844 C 463.066406 185.871094 460.863281 187.1875 460.910156 189.769531 Z M 460.910156 189.769531 " fill-opacity="1" fill-rule="nonzero"/><path fill="#202d31" d="M 634.976562 262.902344 L 623.730469 276.496094 L 613.042969 279.996094 L 611.171875 275.78125 L 609.382812 264.222656 Z M 634.976562 262.902344 " fill-opacity="1" fill-rule="nonzero"/><path fill="#202d31" d="M 621.167969 268.414062 L 629.433594 264.621094 C 631.882812 263.792969 634.976562 264.242188 638.347656 266.1875 C 646.285156 270.769531 652.71875 281.921875 652.71875 291.09375 C 652.71875 295.90625 650.945312 299.214844 648.117188 300.609375 L 640.347656 304.21875 C 637.828125 305.292969 634.535156 304.921875 630.9375 302.839844 C 623 298.257812 616.5625 287.101562 616.5625 277.933594 C 616.5625 273.121094 618.335938 269.8125 621.167969 268.414062 Z M 621.167969 268.414062 " fill-opacity="1" fill-rule="nonzero"/><path fill="#39464a" d="M 616.5625 277.933594 C 616.5625 287.101562 623 298.257812 630.9375 302.839844 C 638.871094 307.425781 645.304688 303.707031 645.308594 294.535156 C 645.308594 285.367188 638.875 274.214844 630.9375 269.628906 C 623 265.042969 616.5625 268.761719 616.5625 277.933594 Z M 616.5625 277.933594 " fill-opacity="1" fill-rule="nonzero"/><path fill="#bfbfbf" d="M 621.878906 281.878906 C 621.988281 287.632812 625.589844 293.929688 630.523438 296.910156 C 634.914062 299.558594 639.261719 296.960938 639.164062 291.867188 C 639.058594 286.101562 635.457031 279.816406 630.523438 276.835938 C 626.132812 274.183594 621.78125 276.785156 621.878906 281.878906 Z M 621.878906 281.878906 " fill-opacity="1" fill-rule="nonzero"/><path fill="#d8d8d8" d="M 626.953125 276.496094 C 624.695312 276.980469 623.0625 279.074219 623.121094 282.117188 C 623.222656 287.53125 626.605469 293.449219 631.25 296.25 C 633.03125 297.328125 634.804688 297.480469 636.238281 296.925781 C 634.6875 297.871094 632.582031 297.882812 630.460938 296.601562 C 625.765625 293.765625 622.339844 287.769531 622.234375 282.292969 C 622.167969 278.84375 624.246094 276.597656 626.953125 276.496094 Z M 626.953125 276.496094 " fill-opacity="1" fill-rule="nonzero"/><path fill="#d8d8d8" d="M 625.621094 284.730469 C 625.671875 287.648438 627.496094 290.839844 630 292.347656 C 632.222656 293.691406 634.425781 292.375 634.375 289.792969 C 634.324219 286.871094 632.496094 283.683594 630 282.175781 C 627.773438 280.832031 625.570312 282.148438 625.621094 284.730469 Z M 625.621094 284.730469 " fill-opacity="1" fill-rule="nonzero"/><g clip-path="url(#aed17422ca)"><path fill="#e1e8ec" d="M 409.53125 130.308594 C 409.53125 130.308594 410.492188 106.796875 413.210938 93.273438 C 415.929688 79.746094 420.40625 66.144531 423.042969 62.144531 C 425.683594 58.140625 439.753906 47.257812 446.074219 43.738281 C 452.390625 40.214844 474.941406 29.253906 477.261719 29.015625 C 479.578125 28.773438 484.539062 31.253906 484.539062 31.253906 L 619.199219 108.316406 C 619.199219 108.316406 641.269531 121.199219 650.144531 128.722656 C 659.023438 136.242188 673.65625 156.410156 673.65625 156.410156 L 700.445312 198.582031 C 700.445312 198.582031 711.160156 210.023438 714.4375 213.863281 C 717.714844 217.707031 725.472656 227.710938 726.992188 231.46875 C 728.511719 235.230469 728.949219 246.074219 728.949219 246.074219 C 728.949219 246.074219 731.070312 248.195312 731.070312 249.636719 C 731.070312 251.074219 732.671875 259.71875 725.953125 268.921875 C 719.238281 278.121094 704.808594 285.75 694.21875 292 C 683.625 298.253906 667.738281 302.707031 662.761719 302.175781 C 658.664062 301.738281 652.054688 299.007812 649.847656 298.054688 C 648.910156 295.195312 646.449219 288.839844 640.953125 280.410156 C 633.378906 268.789062 624.308594 265.015625 617.746094 267.257812 C 612.574219 269.023438 612.738281 276.78125 613.042969 279.996094 L 484.617188 203.78125 L 483.628906 203.78125 C 482.765625 200.394531 481.1875 195.484375 478.34375 189.65625 C 472.832031 178.355469 462.308594 171.0625 454.570312 172.238281 C 448.660156 173.136719 448.230469 179.890625 448.359375 183.027344 C 445.953125 181.378906 428.296875 169.277344 424.644531 166.890625 C 420.722656 164.332031 410.890625 157.691406 410.171875 154.726562 C 409.449219 151.769531 409.929688 140.726562 409.929688 140.726562 Z M 409.53125 130.308594 " fill-opacity="1" fill-rule="nonzero"/></g><path fill="#c7ced2" d="M 731.082031 249.910156 C 731.082031 249.875 731.078125 249.839844 731.074219 249.8125 C 731.078125 249.84375 731.082031 249.875 731.082031 249.910156 Z M 731.082031 249.910156 " fill-opacity="1" fill-rule="nonzero"/><g clip-path="url(#217c76811a)"><path fill="#c7ced2" d="M 409.890625 141.800781 C 409.914062 141.128906 409.929688 140.726562 409.929688 140.726562 L 409.53125 130.308594 C 409.53125 130.308594 410.492188 106.796875 413.210938 93.273438 C 415.929688 79.746094 420.40625 66.144531 423.042969 62.144531 C 423.066406 62.113281 423.09375 62.078125 423.113281 62.046875 C 424.371094 61.660156 425.421875 62.074219 426.949219 63.019531 C 429.628906 64.683594 542.261719 131.371094 581.472656 153.800781 C 586.941406 156.925781 592.96875 163.492188 597 172.742188 C 601.195312 182.367188 630.308594 239.601562 630.308594 239.601562 C 630.308594 239.601562 631.246094 241.953125 632.769531 243.609375 C 634.296875 245.265625 656.714844 267.242188 657.460938 268.65625 C 658.207031 270.074219 671.207031 272.613281 673.421875 273.042969 C 674.929688 273.335938 677.859375 272.96875 680.230469 272.46875 C 680.246094 272.492188 680.257812 272.515625 680.269531 272.542969 C 681.375 274.457031 684.765625 280.023438 688.867188 279.417969 C 692.96875 278.8125 702.847656 273.757812 707.660156 270.519531 C 712.476562 267.28125 720.894531 262.144531 721.679688 255.824219 C 722.464844 249.507812 722.25 246.542969 722.25 246.542969 C 722.25 246.542969 722.25 246.511719 722.246094 246.460938 C 724.5625 243.398438 726.734375 239.980469 728.195312 237.085938 C 728.761719 241.371094 728.949219 246.074219 728.949219 246.074219 C 727.898438 249.84375 724.210938 255.046875 722.398438 257.453125 C 720.730469 263.082031 713.960938 267.589844 709.351562 270.652344 C 708.96875 270.90625 708.597656 271.152344 708.246094 271.390625 C 703.527344 274.5625 693.453125 279.796875 689.019531 280.453125 C 688.761719 280.492188 688.5 280.511719 688.242188 280.511719 C 687.882812 280.511719 687.523438 280.472656 687.164062 280.402344 C 685.925781 280.894531 680.976562 282.753906 672.019531 284.773438 C 662.371094 286.949219 658.449219 285.097656 658.449219 285.097656 L 647.742188 280.320312 L 640.660156 279.914062 L 656.074219 287.90625 C 656.074219 287.90625 662.617188 290.71875 670.753906 289.3125 C 678.882812 287.90625 698.015625 281.097656 708.460938 274.234375 C 717.09375 268.5625 726.039062 260.835938 731.234375 252.648438 C 731.214844 251.46875 731.128906 250.570312 731.089844 250.027344 C 731.246094 252.246094 732.21875 260.339844 725.953125 268.921875 C 719.238281 278.121094 704.808594 285.75 694.21875 292 C 683.625 298.253906 667.738281 302.707031 662.761719 302.175781 C 660.066406 301.886719 656.285156 300.605469 653.386719 299.492188 L 653.199219 299.421875 C 653.160156 299.40625 653.113281 299.386719 653.074219 299.371094 L 652.417969 299.117188 C 651.339844 298.6875 650.4375 298.304688 649.847656 298.054688 C 648.910156 295.195312 646.449219 288.839844 640.953125 280.410156 C 633.378906 268.789062 624.308594 265.015625 617.746094 267.257812 C 612.574219 269.023438 612.738281 276.78125 613.042969 279.996094 L 484.617188 203.78125 L 483.628906 203.78125 C 482.765625 200.394531 481.1875 195.484375 478.34375 189.65625 C 472.832031 178.355469 462.308594 171.0625 454.570312 172.238281 C 448.660156 173.136719 448.230469 179.890625 448.359375 183.027344 C 445.953125 181.378906 428.296875 169.277344 424.644531 166.890625 C 420.722656 164.332031 410.890625 157.691406 410.171875 154.726562 C 409.589844 152.335938 409.789062 144.675781 409.886719 141.816406 C 409.886719 141.8125 409.886719 141.808594 409.890625 141.800781 Z M 414.804688 127.535156 L 414.804688 132.796875 L 552.136719 214.863281 L 609.171875 249.035156 L 553.214844 212.171875 L 414.804688 127.535156 L 414.804688 126.484375 L 414.558594 127.386719 Z M 414.804688 127.535156 " fill-opacity="1" fill-rule="nonzero"/></g><g clip-path="url(#546a4d2329)"><path fill="#ab1f22" d="M 414.804688 120.601562 L 414.804688 144.589844 L 409.902344 141.472656 C 409.917969 141 409.929688 140.726562 409.929688 140.726562 L 409.53125 130.308594 C 409.53125 130.308594 409.789062 124 410.414062 116.042969 L 414.042969 118.65625 C 414.042969 118.65625 414.90625 119.167969 414.804688 120.601562 Z M 414.804688 120.601562 " fill-opacity="1" fill-rule="nonzero"/></g><g clip-path="url(#beb84fadb6)"><path fill="#f2f2f2" d="M 414.804688 132.796875 L 409.574219 129.359375 C 409.625 128.269531 409.722656 126.308594 409.878906 123.785156 L 414.804688 127.136719 Z M 414.804688 132.796875 " fill-opacity="1" fill-rule="nonzero"/></g><path fill="#ffffff" d="M 680.851562 279.671875 C 680.851562 279.671875 675.328125 271.988281 670.972656 269.695312 C 666.617188 267.402344 652.585938 265.8125 652.035156 265.710938 C 651.488281 265.609375 650.597656 265.925781 651.195312 267.191406 C 651.796875 268.453125 655.132812 276.003906 658.183594 278.84375 C 661.230469 281.675781 662.496094 283.34375 668.78125 282.601562 C 675.066406 281.863281 680.851562 279.671875 680.851562 279.671875 Z M 680.851562 279.671875 " fill-opacity="1" fill-rule="nonzero"/><path fill="#ffffff" d="M 728.949219 246.074219 C 728.949219 246.074219 724.617188 252.683594 723.121094 254.179688 C 723.121094 254.179688 723.214844 242.648438 723.246094 239.195312 C 723.273438 236.269531 724.097656 229.820312 724.53125 227.191406 C 725.679688 228.917969 726.574219 230.433594 726.992188 231.46875 C 728.511719 235.230469 728.949219 246.074219 728.949219 246.074219 Z M 728.949219 246.074219 " fill-opacity="1" fill-rule="nonzero"/><path fill="#39464a" d="M 617.746094 267.257812 C 615.703125 267.957031 614.496094 269.585938 613.796875 271.5 L 610.289062 268.910156 L 480.144531 193.601562 C 479.609375 192.34375 479.011719 191.023438 478.34375 189.65625 C 477.070312 187.042969 475.523438 184.648438 473.808594 182.519531 L 479.164062 183.578125 L 614.097656 262.101562 L 618.808594 266.957031 C 618.445312 267.042969 618.089844 267.140625 617.746094 267.257812 Z M 617.746094 267.257812 " fill-opacity="1" fill-rule="nonzero"/><g clip-path="url(#1fb214c3dc)"><path fill="#39464a" d="M 454.570312 172.238281 C 452.128906 172.609375 450.621094 173.980469 449.703125 175.683594 L 418.304688 155.984375 L 418.667969 162.796875 C 414.722656 159.941406 410.625 156.601562 410.171875 154.726562 C 409.5625 152.234375 409.808594 143.996094 409.902344 141.46875 L 450.144531 166.101562 L 455.1875 172.167969 C 454.980469 172.183594 454.773438 172.207031 454.570312 172.238281 Z M 454.570312 172.238281 " fill-opacity="1" fill-rule="nonzero"/></g><path fill="#39464a" d="M 647.742188 280.320312 L 658.449219 285.097656 C 658.449219 285.097656 662.371094 286.949219 672.019531 284.773438 C 680.976562 282.753906 685.925781 280.894531 687.164062 280.402344 C 687.523438 280.472656 687.882812 280.511719 688.242188 280.511719 C 688.5 280.511719 688.761719 280.492188 689.019531 280.453125 C 693.453125 279.796875 703.527344 274.5625 708.246094 271.390625 C 708.597656 271.152344 708.96875 270.90625 709.351562 270.652344 C 713.960938 267.589844 720.730469 263.082031 722.398438 257.453125 C 724.210938 255.046875 727.898438 249.84375 728.949219 246.074219 C 728.949219 246.074219 731.070312 248.195312 731.070312 249.636719 C 731.070312 251.074219 732.671875 259.71875 725.953125 268.921875 C 719.238281 278.121094 704.808594 285.75 694.21875 292 C 683.625 298.253906 667.738281 302.707031 662.761719 302.175781 C 658.664062 301.738281 652.054688 299.007812 649.847656 298.054688 C 648.910156 295.195312 646.449219 288.839844 640.953125 280.410156 C 640.84375 280.238281 640.734375 280.078125 640.625 279.914062 Z M 647.742188 280.320312 " fill-opacity="1" fill-rule="nonzero"/><path fill="#39464a" d="M 681.199219 269.660156 C 686.433594 267.0625 696.074219 261.847656 701.742188 258.503906 C 707.605469 255.039062 718.96875 247.226562 720.640625 246.152344 C 720.929688 245.972656 721.15625 245.867188 721.347656 245.8125 C 721.355469 245.882812 721.351562 245.925781 721.351562 245.925781 C 721.351562 245.925781 721.566406 248.890625 720.78125 255.207031 C 719.996094 261.523438 711.578125 266.664062 706.765625 269.902344 C 701.949219 273.140625 692.074219 278.191406 687.96875 278.800781 C 686.796875 278.972656 685.683594 278.640625 684.664062 278.035156 C 682.558594 276.382812 680.964844 273.742188 680.269531 272.542969 C 679.164062 270.628906 680.519531 269.996094 681.199219 269.660156 Z M 681.199219 269.660156 " fill-opacity="1" fill-rule="nonzero"/><path fill="#202d31" d="M 686.652344 285.917969 C 686.929688 285.703125 687.175781 285.59375 687.175781 285.59375 C 690.621094 284.316406 700.835938 279.800781 707.386719 275.75 C 711.027344 273.496094 714.40625 271.027344 717.070312 268.949219 C 716.964844 269.652344 716.621094 270.734375 715.523438 271.625 C 713.734375 273.074219 708.417969 276.972656 703.25 279.789062 C 697.59375 282.871094 690.171875 287.414062 686.652344 285.917969 Z M 686.652344 285.917969 " fill-opacity="1" fill-rule="nonzero"/><path fill="#202d31" d="M 647.371094 177.382812 C 659.296875 170.644531 668.535156 162.867188 673.613281 156.351562 C 673.640625 156.386719 673.65625 156.410156 673.65625 156.410156 L 700.445312 198.582031 C 700.445312 198.582031 700.582031 198.730469 700.828125 198.992188 C 700.828125 198.992188 705.21875 207.445312 677.128906 224.828125 C 649.035156 242.214844 634.09375 239.894531 634.09375 239.894531 L 611.421875 194.464844 C 611.421875 194.464844 631.984375 186.078125 647.371094 177.382812 Z M 647.371094 177.382812 " fill-opacity="1" fill-rule="nonzero"/><path fill="#202d31" d="M 587.382812 183.035156 C 587.382812 183.035156 582.648438 179.425781 582.796875 184.960938 C 582.941406 190.5 583.414062 200.875 583.957031 204.773438 C 584.503906 208.667969 585.746094 212.746094 590.835938 216.824219 C 595.929688 220.90625 629.921875 247.851562 629.921875 247.851562 L 617.839844 221.378906 C 617.839844 221.378906 608.230469 201.53125 605.539062 197.160156 C 602.847656 192.792969 587.382812 183.035156 587.382812 183.035156 Z M 587.382812 183.035156 " fill-opacity="1" fill-rule="nonzero"/><path fill="#202d31" d="M 418.558594 116.621094 C 418.558594 116.621094 422.46875 98.578125 423.640625 91.976562 C 423.824219 90.917969 424.1875 90.179688 424.664062 89.667969 C 426.804688 89.125 429.453125 90.578125 429.453125 90.578125 C 429.453125 90.578125 567.351562 171.375 570.058594 172.898438 C 572.769531 174.421875 573.867188 176.199219 573.867188 178.148438 C 573.867188 180.097656 570.144531 200.761719 568.535156 205.234375 C 568.1875 206.199219 567.714844 206.886719 567.183594 207.378906 C 565.625 207.890625 564.125 207.410156 564.125 207.410156 C 564.125 207.410156 423.554688 123.652344 420.503906 121.945312 C 417.460938 120.246094 418.558594 116.621094 418.558594 116.621094 Z M 418.558594 116.621094 " fill-opacity="1" fill-rule="nonzero"/><path fill="#39464a" d="M 647.882812 178.296875 C 658.597656 172.242188 667.84375 164.960938 673.511719 158.140625 L 698.820312 197.980469 L 698.425781 199.253906 C 697.738281 200.597656 696.996094 205.101562 672.136719 220.480469 C 650.246094 234.03125 644.03125 235.019531 638.472656 236.085938 C 638.472656 236.085938 635.703125 236.230469 635.703125 236.230469 C 635.140625 236.230469 633.496094 235.910156 633.191406 235.890625 L 612.863281 195.003906 C 617.253906 193.171875 634.589844 185.8125 647.882812 178.296875 Z M 647.882812 178.296875 " fill-opacity="1" fill-rule="nonzero"/><path fill="#39464a" d="M 616.953125 236.230469 C 613.539062 233.523438 609.855469 230.597656 606.355469 227.820312 L 606.355469 200.769531 C 610.0625 207.734375 616.8125 221.664062 616.882812 221.8125 L 616.953125 221.964844 Z M 616.953125 236.230469 " fill-opacity="1" fill-rule="nonzero"/><path fill="#39464a" d="M 584.207031 183.050781 C 584.246094 183.011719 584.328125 182.929688 584.578125 182.929688 C 585.253906 182.929688 586.265625 183.503906 586.746094 183.867188 L 586.78125 183.894531 L 586.820312 183.921875 C 591.066406 186.597656 602.542969 194.296875 604.644531 197.710938 C 604.777344 197.925781 604.929688 198.183594 605.097656 198.472656 L 605.097656 226.824219 C 598.785156 221.808594 593.296875 217.453125 591.492188 216.007812 C 586.640625 212.125 585.503906 208.246094 584.996094 204.628906 C 584.460938 200.808594 583.992188 190.621094 583.84375 184.9375 C 583.808594 183.570312 584.113281 183.148438 584.207031 183.050781 Z M 584.207031 183.050781 " fill-opacity="1" fill-rule="nonzero"/><path fill="#39464a" d="M 523.046875 147.832031 L 517.195312 175.203125 C 500.664062 165.429688 482.292969 154.570312 466.097656 145.003906 L 471.898438 117.875 C 488.136719 127.386719 506.605469 138.203125 523.046875 147.832031 Z M 523.046875 147.832031 " fill-opacity="1" fill-rule="nonzero"/><path fill="#39464a" d="M 569.03125 174.726562 C 571.484375 176.109375 571.773438 177.34375 571.773438 178.140625 C 571.730469 180.097656 568.585938 198.6875 567.09375 202.835938 C 566.957031 203.21875 566.792969 203.542969 566.597656 203.804688 C 566.460938 203.824219 566.316406 203.835938 566.171875 203.835938 C 565.875 203.835938 565.621094 203.796875 565.464844 203.765625 C 562.367188 201.921875 543.683594 190.863281 520.742188 177.300781 L 526.597656 149.910156 C 549.722656 163.449219 568.046875 174.171875 569.03125 174.726562 Z M 569.03125 174.726562 " fill-opacity="1" fill-rule="nonzero"/><path fill="#39464a" d="M 420.566406 115.84375 L 420.589844 115.761719 L 420.609375 115.679688 C 420.769531 114.941406 424.539062 98.910156 425.703125 92.339844 C 425.75 92.082031 425.808594 91.847656 425.886719 91.648438 C 426.902344 91.707031 428.039062 92.199219 428.425781 92.40625 C 430.503906 93.625 447.171875 103.386719 468.347656 115.792969 L 462.550781 142.910156 C 440.089844 129.644531 422.597656 119.324219 421.53125 118.730469 C 420.074219 117.914062 420.476562 116.164062 420.566406 115.84375 Z M 420.566406 115.84375 " fill-opacity="1" fill-rule="nonzero"/><path fill="#a1b3be" d="M 676.011719 183.621094 L 659.589844 170.777344 C 664.894531 166.902344 669.453125 162.839844 672.859375 158.910156 Z M 676.011719 183.621094 " fill-opacity="1" fill-rule="nonzero"/><path fill="#a1b3be" d="M 674.238281 159.28125 L 683.261719 173.484375 C 684.484375 180.703125 686.371094 191.71875 686.371094 191.71875 L 677.347656 184.664062 Z M 674.238281 159.28125 " fill-opacity="1" fill-rule="nonzero"/><path fill="#525f63" d="M 617.917969 227.929688 C 617.917969 227.929688 621.296875 229.28125 621.359375 231.214844 C 621.417969 233.15625 621.542969 238.535156 621.542969 238.535156 C 621.542969 238.535156 621.605469 240.324219 620.222656 239.996094 C 618.835938 239.667969 617.367188 239.023438 617.367188 239.023438 C 617.367188 239.023438 613.308594 241.269531 611.421875 241.636719 C 609.53125 242.007812 606.617188 242.253906 605.972656 241.144531 C 605.328125 240.039062 605.796875 233.8125 606.121094 231.523438 C 606.449219 229.234375 606.738281 227.160156 609.011719 225.992188 C 611.285156 224.824219 612.632812 224.363281 612.632812 224.363281 C 612.632812 224.363281 614.417969 223.777344 615.796875 224.914062 C 617.179688 226.054688 616.933594 228.359375 616.933594 228.359375 Z M 617.917969 227.929688 " fill-opacity="1" fill-rule="nonzero"/><path fill="#525f63" d="M 696.445312 192.285156 L 691.445312 184.417969 C 691.445312 182.214844 691.554688 178.582031 692.246094 177.523438 C 693.257812 175.972656 695.996094 174.007812 695.996094 174.007812 C 695.996094 174.007812 697.605469 173.589844 698.378906 174.78125 C 699.152344 175.972656 699.75 182.109375 699.871094 184.792969 C 699.964844 187.035156 698.730469 190.0625 696.445312 192.285156 Z M 696.445312 192.285156 " fill-opacity="1" fill-rule="nonzero"/></svg>